<?xml version="1.0" encoding="UTF-8"?>
<svg version="1.1" xmlns="http://www.w3.org/2000/svg" width="2000" height="1252">
<path d="M0 0 C1.35420724 0.00192419 2.7084146 0.00376462 4.06262207 0.00552368 C25.63010379 0.04619213 47.01783519 0.66139955 68.4375 3.3125 C69.47735046 3.43978485 69.47735046 3.43978485 70.53820801 3.56964111 C110.05775306 8.46328382 149.65039342 17.36422636 185.4375 35.3125 C186.1082959 35.64314453 186.7790918 35.97378906 187.47021484 36.31445312 C208.03163817 46.5216043 225.92807631 60.47624343 242.4375 76.3125 C243.26121094 77.09496094 244.08492187 77.87742187 244.93359375 78.68359375 C249.7346298 83.35149882 254.03107522 88.29872678 258.20703125 93.53125 C259.61281257 95.28416822 261.0446276 97.01681375 262.51171875 98.71875 C275.10638735 113.43193032 285.10838722 130.39981054 294.4375 147.3125 C294.87626465 148.09963379 295.3150293 148.88676758 295.76708984 149.69775391 C312.46249688 179.82988766 323.71984916 212.18405563 335.46910095 244.45539856 C339.7370043 256.16565614 344.10634465 267.83646324 348.5 279.5 C355.78171259 298.85199564 362.98274907 318.23308361 370.14160156 337.63085938 C374.07263318 348.27539272 378.02874155 358.90860361 382.0703125 369.51171875 C382.78626894 371.39581253 383.5021722 373.27992652 384.21801758 375.1640625 C385.53839677 378.63812966 386.87059939 382.1073383 388.2097168 385.57421875 C388.79259739 387.10530039 389.37506263 388.63654024 389.95703125 390.16796875 C390.22673737 390.85581955 390.49644348 391.54367035 390.77432251 392.25236511 C392.55117583 396.9714725 392.55117583 396.9714725 391.4375 400.3125 C388.19415883 402.01412272 384.61149649 402.96313001 381.125 404.0625 C380.03936768 404.41030518 378.95373535 404.75811035 377.83520508 405.11645508 C366.41849936 408.60025543 354.78105698 410.77940997 343.02807617 412.79003906 C331.71062581 414.76969072 319.23114904 417.10363591 311.4375 426.3125 C308.1389115 431.07287598 305.49352053 435.89734733 303.4375 441.3125 C300.72424973 438.69952202 298.41002746 436.03709457 296.1875 433 C287.49582395 421.81975986 275.56705642 414.43653188 261.4375 412.3125 C241.20025727 410.60444434 222.65952741 414.77344544 206.6875 427.6875 C205.95015625 428.33460938 205.2128125 428.98171875 204.453125 429.6484375 C202.51166957 431.25126698 200.69568636 432.23283039 198.4375 433.3125 C198.19598709 432.63727798 197.95447418 431.96205597 197.7056427 431.26637268 C183.4919075 391.53694603 169.1331084 351.8668164 154.4375 312.3125 C154.03853516 311.23806641 153.63957031 310.16363281 153.22851562 309.05664062 C147.68169317 294.12288787 142.0928982 279.20549125 136.4375 264.3125 C136.08451843 263.38248169 135.73153687 262.45246338 135.36785889 261.4942627 C127.10276598 239.74163066 118.6485247 218.24037955 108.4375 197.3125 C107.92123047 196.23516602 107.40496094 195.15783203 106.87304688 194.04785156 C97.46341152 174.42253068 87.18958999 155.28061103 73.4375 138.3125 C72.80013916 137.51706787 72.80013916 137.51706787 72.14990234 136.70556641 C44.74213974 102.6505091 6.08883134 91.06157433 -35.07128906 81.95092773 C-64.69582426 75.34795978 -64.69582426 75.34795978 -68.875 69.9375 C-75.43848507 55.83816171 -76.17263239 34.65233213 -71.60546875 19.79296875 C-68.76883238 13.04666127 -65.21284753 7.70553446 -58.5625 4.3125 C-53.05914866 2.4818155 -47.73905978 1.71483548 -41.97265625 1.20703125 C-40.55014305 1.08120415 -40.55014305 1.08120415 -39.09889221 0.95283508 C-26.08473398 -0.08772083 -13.04736328 -0.03682219 0 0 Z " fill="#2156BE" transform="translate(437.5625,1.6875)"/>
<path d="M0 0 C0.33 0 0.66 0 1 0 C1.07476563 1.01578125 1.14953125 2.0315625 1.2265625 3.078125 C2.26623774 14.74211498 4.94823908 25.38668604 14.03515625 33.5390625 C22.92798056 40.15122213 33.04770004 42.88219353 44.0625 41.5 C53.49784517 39.54871134 60.78769098 35.42167239 66.26953125 27.44140625 C68 26 68 26 70.671875 26.07421875 C74.72100316 27.20056074 78.5377964 28.69405558 82.4375 30.25 C100.55175763 37.21384183 119.29231763 40.19117618 138.62329102 40.24023438 C140.90093872 40.24984572 143.17764487 40.28089299 145.45507812 40.3125 C169.23458187 40.484174 190.43768244 33.46555206 212 24 C216.91879718 36.1173291 221.65316029 48.278088 226.10061646 60.57620239 C227.69383234 64.98056233 229.29851371 69.38074638 230.90234375 73.78125 C231.23435287 74.69278336 231.566362 75.60431671 231.90843201 76.54347229 C235.74599915 87.06731246 239.6512715 97.56585902 243.5625 108.0625 C243.8937085 108.95180206 244.22491699 109.84110413 244.56616211 110.75735474 C245.52416217 113.32927665 246.48271915 115.90099037 247.44140625 118.47265625 C247.742211 119.28029922 248.04301575 120.0879422 248.35293579 120.9200592 C249.82195715 124.8600996 251.30010383 128.79629877 252.79638672 132.72607422 C253.07812241 133.46860947 253.35985809 134.21114471 253.65013123 134.97618103 C254.17910568 136.36882445 254.71074228 137.76046068 255.24549866 139.15089417 C257 143.77665372 257 143.77665372 257 146 C258.65 146 260.3 146 262 146 C262.17360046 145.40642197 262.34720093 144.81284393 262.52606201 144.20127869 C264.44053344 137.72909838 266.52818225 131.33024263 268.703125 124.94140625 C269.05812073 123.8945163 269.41311646 122.84762634 269.77886963 121.76901245 C270.93374799 118.36610156 272.09159947 114.96421338 273.25 111.5625 C273.64517822 110.40058136 274.04035645 109.23866272 274.44750977 108.04153442 C280.07870168 91.48848169 285.75511403 74.95144304 291.5 58.4375 C291.81859985 57.51913361 292.13719971 56.60076721 292.4654541 55.65457153 C293.35940217 53.07986031 294.25712123 50.50649967 295.15625 47.93359375 C295.41690247 47.18189911 295.67755493 46.43020447 295.94610596 45.6557312 C297.11808383 42.31694121 298.37786251 39.14223051 300 36 C320.12319241 35.18429863 340.19955752 34.86352776 360.33721924 34.93133545 C363.81855615 34.94186694 367.2999015 34.94619444 370.78125 34.95117188 C377.52085234 34.9616582 384.2604238 34.9785463 391 35 C386.30448029 48.67302541 381.59464677 62.33402982 376.54067993 75.87918091 C375.05930816 79.85262379 373.59036885 83.83066512 372.12109375 87.80859375 C371.79956833 88.67898788 371.47804291 89.54938202 371.14677429 90.44615173 C351.38986872 144.01000342 332.30157684 197.82420262 313.22380066 251.63281536 C302.4290565 282.07900351 291.56459881 312.49848428 280.56103516 342.86987305 C276.78651435 353.2891714 273.02110997 363.71163568 269.2734375 374.140625 C268.87866714 375.23886597 268.48389679 376.33710693 268.0771637 377.46862793 C266.18805735 382.72458877 264.30030515 387.98102933 262.41479492 393.23828125 C257.03968741 408.19727739 251.52149668 423.09195896 246 438 C215.64 438 185.28 438 154 438 C149.5 427.875 149.5 427.875 147.75195312 423.06787109 C147.15733528 421.43994377 147.15733528 421.43994377 146.55070496 419.77912903 C146.13178482 418.62225082 145.71286469 417.46537262 145.28125 416.2734375 C144.83094925 415.0378862 144.3806485 413.8023349 143.91670227 412.52934265 C142.69523655 409.17761134 141.47768124 405.82447222 140.26092911 402.47102737 C138.97388418 398.92578068 137.68341048 395.38178235 136.39331055 391.83764648 C134.2778019 386.02474912 132.16440758 380.21108699 130.05224609 374.39697266 C127.28744988 366.78700136 124.51406338 359.18019044 121.73828125 351.57421875 C111.26464817 322.86209051 100.93557875 294.10025947 90.67684937 265.31071472 C84.39923988 247.69719505 78.08303526 230.09749448 71.76618958 212.49801636 C69.59823152 206.45716164 67.43210719 200.41565567 65.26904297 194.37304688 C54.60004397 164.56919638 43.86769549 134.79320632 32.88473511 105.10327148 C25.82367201 86.01515584 18.87884907 66.88789616 12.03393555 47.72119141 C11.69119095 46.76415314 11.34844635 45.80711487 10.99531555 44.82107544 C10.3261387 42.95059186 9.6598022 41.07908936 8.99650574 39.20651245 C7.32026467 34.51088558 5.55908936 29.87495046 3.64306641 25.27148438 C3.26152908 24.33628967 2.87999176 23.40109497 2.4868927 22.43756104 C1.76391995 20.67812475 1.02039188 18.9269227 0.25175476 17.18695068 C-2.30555121 10.91268229 -1.94155353 6.4505572 0 0 Z " fill="#2156BE" transform="translate(780,812)"/>
<path d="M0 0 C0.78548281 0.02593892 1.57096561 0.05187784 2.38025093 0.07860279 C4.97932598 0.16590188 7.57799742 0.2619756 10.17675781 0.3581543 C12.02041833 0.4219879 13.86409767 0.48527995 15.70779419 0.54806519 C19.63278034 0.68281666 23.55760757 0.82136887 27.48236084 0.96273804 C33.70068339 1.18624281 39.91939176 1.39744762 46.13818359 1.60742188 C63.05745069 2.18193999 79.97551956 2.76010571 96.88769531 3.51831055 C178.38542643 7.09303846 259.98469314 5.34221004 341.437446 1.6527288 C343.44577846 1.56198485 345.45415367 1.47218862 347.46252918 1.38240242 C353.64435758 1.10591475 359.82557135 0.82200463 366.00614929 0.51879883 C399.72541116 -1.07539213 399.72541116 -1.07539213 409.09863281 6.71362305 C418.35013573 16.24129023 421.86687797 28.96643022 422.19238281 41.93237305 C422.00409536 54.42210753 420.24375041 67.39296671 412.81738281 77.74487305 C404.24742824 83.94441465 392.19670795 83.96759068 381.97753906 84.29956055 C380.02707593 84.37093793 378.07663719 84.44298422 376.1262207 84.515625 C375.11544464 84.55257477 374.10466858 84.58952454 373.06326294 84.62759399 C335.43643601 86.04156648 298.50277586 89.63341702 264.87988281 107.86987305 C263.8215625 108.42416992 262.76324219 108.9784668 261.67285156 109.54956055 C253.52279536 114.01446683 246.72462927 119.65365527 239.87988281 125.86987305 C239.1 126.5659668 238.32011719 127.26206055 237.51660156 127.97924805 C225.49275176 139.32167309 216.16539687 153.66520595 207.87988281 167.86987305 C207.44466309 168.61011719 207.00944336 169.35036133 206.56103516 170.11303711 C167.39148279 237.28903085 146.18641557 318.72944706 119.99133301 391.77124023 C118.85669982 394.93450535 117.72141244 398.09753499 116.5859375 401.26049805 C108.81950753 422.89518242 101.06465657 444.53396002 93.34413147 466.18507385 C91.20064203 472.19562954 89.05460088 478.20524233 86.90161133 484.21240234 C86.08178862 486.50054105 85.26204431 488.78870784 84.44238281 491.0769043 C84.0478038 492.1783226 83.65322479 493.27974091 83.24668884 494.41453552 C81.13561655 500.31891099 79.05088949 506.23118401 77.00575256 512.15872192 C75.9095717 515.3318238 74.79948895 518.49994962 73.6869812 521.6673584 C73.19697808 523.07565295 72.71428221 524.48651485 72.23953247 525.90002441 C71.60788847 527.78029639 70.94983547 529.65163786 70.29003906 531.5222168 C69.94078369 532.54307373 69.59152832 533.56393066 69.23168945 534.61572266 C67.87988281 536.86987305 67.87988281 536.86987305 65.45092773 537.73046875 C62.6401618 537.88287093 60.0245337 537.54826607 57.24511719 537.14526367 C32.37071426 534.24906977 7.41981172 538.03806902 -15.04589844 548.9519043 C-17.12011719 549.86987305 -17.12011719 549.86987305 -19.12011719 549.86987305 C-21.85949234 517.84521397 -15.9363813 492.68908311 -4.42431641 462.90112305 C-1.25214048 454.6669153 1.6109985 446.32976774 4.47799683 437.9855957 C5.6853507 434.48393039 6.9115332 430.98897587 8.13710022 427.49365234 C12.63788003 414.64841333 17.01261574 401.76099006 21.37988281 388.86987305 C26.9364133 372.46833784 32.56785385 356.09619847 38.296875 339.75415039 C43.78609365 324.08858537 49.14208939 308.37976125 54.46792603 292.6579895 C58.97378378 279.36103489 63.52925584 266.08400802 68.17999268 252.83703613 C71.09731341 244.52069559 73.99126265 236.19621885 76.87988281 227.86987305 C77.19703373 226.9560725 77.19703373 226.9560725 77.52059174 226.02381134 C80.45485403 217.567683 83.37513697 209.10690743 86.27189159 200.63785076 C87.49440876 197.06414627 88.72088078 193.49194423 89.95883179 189.92355347 C105.39901688 149.87900685 105.39901688 149.87900685 101.84472656 108.5690918 C95.58566692 97.88240154 85.20508437 93.88904803 73.69238281 90.74487305 C53.68575117 85.96754471 33.09469461 85.3248524 12.62817383 84.78588867 C-22.14609322 83.82593651 -22.14609322 83.82593651 -30.12011719 76.86987305 C-38.40002369 65.44794951 -40.39705698 48.30429536 -38.70996094 34.51831055 C-36.59485142 23.90476696 -33.04921095 11.58836538 -23.87011719 4.90893555 C-16.15974631 0.33090284 -8.79755785 -0.34649285 0 0 Z " fill="#2156BF" transform="translate(1214.1201171875,5.130126953125)"/>
<path d="M0 0 C2.49672111 1.79349617 2.86661421 3.3567726 3.7890625 6.28515625 C4.05077553 9.64905262 4.05077553 9.64905262 4.0675354 13.56806946 C4.0733278 14.2910468 4.0791202 15.01402414 4.08508813 15.75890988 C4.10206093 18.17566317 4.10496226 20.59222518 4.10791016 23.0090332 C4.11721022 24.74374356 4.127379 26.47844944 4.13835144 28.21315002 C4.16565673 32.91930593 4.18080245 37.6254319 4.19377947 42.3316462 C4.20940766 47.25109559 4.23619889 52.17048381 4.2618103 57.08988953 C4.30860358 66.40409941 4.34534506 75.7183208 4.37848318 85.03258818 C4.41670066 95.63713509 4.46611181 106.24162057 4.51646733 116.84611571 C4.61979537 138.65908387 4.70905297 160.47209091 4.7890625 182.28515625 C5.46938034 181.6728566 6.14969818 181.06055695 6.85063171 180.42970276 C7.74643448 179.6234697 8.64223724 178.81723663 9.56518555 177.98657227 C10.45175339 177.18864761 11.33832123 176.39072296 12.25175476 175.56861877 C13.08906631 174.81507614 13.92637787 174.06153351 14.7890625 173.28515625 C15.45457626 172.68592346 16.12009003 172.08669067 16.80577087 171.46929932 C41.76043492 149.0418469 68.54590544 140.6934463 101.7890625 142.28515625 C122.19731692 143.98345119 141.3602348 152.47954489 154.7890625 168.28515625 C169.67935532 186.73893795 172.91467222 208.08408589 172.96264648 231.05322266 C172.96896653 232.41116034 172.97573388 233.76909599 172.98291016 235.12702942 C172.99747537 238.03140458 173.00924142 240.9357723 173.01885796 243.840168 C173.03442817 248.43867899 173.05837371 253.03712366 173.08375549 257.6355896 C173.15465648 270.70493366 173.21477609 283.77431386 173.26586914 296.84375 C173.29422012 304.07707007 173.32961696 311.31032218 173.37252289 318.54357088 C173.39918735 323.10916709 173.41715744 327.67468669 173.42856014 332.24034524 C173.43772236 335.08475546 173.45509957 337.92907261 173.47473907 340.77342796 C173.4857042 342.70884509 173.4869609 344.64430971 173.48786926 346.57975769 C173.56086595 355.3387166 173.79631489 363.34618534 179.7890625 370.28515625 C185.68646895 374.35788124 191.60381795 374.98038484 198.6015625 375.34765625 C200.46297843 375.45099737 202.32377647 375.56636162 204.18359375 375.6953125 C204.99675049 375.73793213 205.80990723 375.78055176 206.64770508 375.82446289 C209.2671522 376.38801285 210.16569565 377.18295682 211.7890625 379.28515625 C213.51545715 384.4643402 213.41021184 388.73228291 211.4140625 393.72265625 C209.7890625 396.28515625 209.7890625 396.28515625 207.7890625 397.28515625 C206.1765505 397.3904909 204.55977904 397.43334696 202.94387817 397.44578552 C201.92038269 397.45583115 200.89688721 397.46587677 199.84237671 397.47622681 C198.71506134 397.4820578 197.58774597 397.48788879 196.42626953 397.49389648 C195.24246704 397.50368027 194.05866455 397.51346405 192.83898926 397.52354431 C188.90830605 397.55354298 184.97762451 397.57519387 181.046875 397.59375 C180.37836187 397.59704732 179.70984874 397.60034464 179.02107763 397.60374188 C172.7179292 397.63451833 166.41477603 397.66122861 160.11157417 397.67816067 C152.04579979 397.70008098 143.98068994 397.74208253 135.91518128 397.81159824 C130.24548993 397.85880832 124.5759781 397.88308995 118.90609634 397.89035755 C115.51866161 397.89531784 112.13197585 397.91043147 108.74475479 397.95010185 C104.96618526 397.98879918 101.18936343 397.99007838 97.41064453 397.98217773 C96.28737762 398.00217834 95.16411072 398.02217896 94.00680542 398.04278564 C91.14071946 398.01579076 88.57839308 397.94337327 85.7890625 397.28515625 C82.31316273 393.58701301 81.23229748 390.69805151 81.2890625 385.66015625 C81.27359375 384.27957031 81.27359375 384.27957031 81.2578125 382.87109375 C81.98806024 379.31650548 82.74048734 378.30232724 85.7890625 376.28515625 C89.18660652 375.60794308 92.58325732 375.44766991 96.0390625 375.28515625 C102.99189921 374.95267179 108.95959648 374.40865268 114.7890625 370.28515625 C122.2405828 360.92298972 120.9392115 348.66535026 120.95019531 337.26489258 C120.95516022 336.01126923 120.96012512 334.75764587 120.96524048 333.46603394 C120.97725541 330.05867933 120.98478215 326.65138531 120.98925114 323.24401689 C120.99220354 321.1055687 120.99631211 318.96712561 121.00075531 316.82868004 C121.01439305 310.10963464 121.02407836 303.3906012 121.0279572 296.67154294 C121.03243178 288.96753698 121.04996748 281.26370897 121.0789578 273.55975705 C121.10070491 267.56867303 121.11066834 261.57763861 121.11199832 255.58651561 C121.11303689 252.02470201 121.1187392 248.46305651 121.13681793 244.90128517 C122.01106348 214.6414622 122.01106348 214.6414622 108.6015625 188.47265625 C96.05230388 176.94388679 79.41818103 173.58584126 62.98730469 174.14892578 C43.64537628 175.3475926 24.18042482 185.64483211 11.3515625 200.015625 C5.86939558 206.73786122 5.86939558 206.73786122 4.65534973 215.04579163 C4.65108475 216.27241516 4.64681976 217.4990387 4.64242554 218.76283264 C4.64277509 220.12973026 4.64323665 221.49662785 4.64379883 222.86352539 C4.64080784 224.29747607 4.63740545 225.73142595 4.63362122 227.16537476 C4.62476638 231.06863299 4.62244236 234.97186931 4.62180543 238.87513661 C4.62085659 242.13514165 4.6171782 245.39514156 4.61363333 248.65514463 C4.60548157 256.35237444 4.60304959 264.04959255 4.60375977 271.74682617 C4.60435935 279.6765171 4.59383316 287.60613973 4.5780161 295.53581339 C4.56491447 302.34783086 4.55957704 309.1598261 4.56021518 315.97185606 C4.56046959 320.03823362 4.55765055 324.10455063 4.54703712 328.1709156 C4.5373131 332.00156881 4.53730631 335.83210418 4.54455376 339.66276169 C4.54559458 341.06352219 4.54326675 342.46429019 4.5371933 343.86503792 C4.14263909 356.90576885 4.14263909 356.90576885 8.9765625 368.66015625 C15.80187166 375.0304448 23.5316006 374.92454462 32.40234375 375.45703125 C33.76166016 375.55757812 33.76166016 375.55757812 35.1484375 375.66015625 C35.96795898 375.70914062 36.78748047 375.758125 37.63183594 375.80859375 C40.25417551 376.38790643 41.16207323 377.17743723 42.7890625 379.28515625 C44.51545715 384.4643402 44.41021184 388.73228291 42.4140625 393.72265625 C40.7890625 396.28515625 40.7890625 396.28515625 38.7890625 397.28515625 C37.1765505 397.3904909 35.55977904 397.43334696 33.94387817 397.44578552 C32.92038269 397.45583115 31.89688721 397.46587677 30.84237671 397.47622681 C29.71506134 397.4820578 28.58774597 397.48788879 27.42626953 397.49389648 C26.24246704 397.50368027 25.05866455 397.51346405 23.83898926 397.52354431 C19.90830605 397.55354298 15.97762451 397.57519387 12.046875 397.59375 C11.37836187 397.59704732 10.70984874 397.60034464 10.02107763 397.60374188 C3.7179292 397.63451833 -2.58522397 397.66122861 -8.88842583 397.67816067 C-16.95420021 397.70008098 -25.01931006 397.74208253 -33.08481872 397.81159824 C-38.75451007 397.85880832 -44.4240219 397.88308995 -50.09390366 397.89035755 C-53.48133839 397.89531784 -56.86802415 397.91043147 -60.25524521 397.95010185 C-64.03381474 397.98879918 -67.81063657 397.99007838 -71.58935547 397.98217773 C-72.71262238 398.00217834 -73.83588928 398.02217896 -74.99319458 398.04278564 C-77.85983175 398.01578556 -80.42158947 397.94600912 -83.2109375 397.28515625 C-86.30052279 393.93714971 -87.99321947 390.8572349 -88.2109375 386.28515625 C-87.81429743 383.51403575 -87.32503748 380.86009141 -86.2109375 378.28515625 C-83.11812856 376.22328362 -82.15411342 376.00181596 -78.60546875 375.79296875 C-77.70376953 375.72722656 -76.80207031 375.66148437 -75.87304688 375.59375 C-73.99324773 375.47263888 -72.11302477 375.35791423 -70.23242188 375.25 C-63.3339922 374.73102658 -57.26058109 373.54199431 -52.37109375 368.3203125 C-52.00886719 367.66933594 -51.64664062 367.01835938 -51.2734375 366.34765625 C-50.89316406 365.69925781 -50.51289062 365.05085938 -50.12109375 364.3828125 C-48.36874325 360.34413344 -48.08550025 356.35598901 -48.07950974 351.99422836 C-48.07374802 350.41486783 -48.07374802 350.41486783 -48.0678699 348.80360103 C-48.06873638 347.65312887 -48.06960287 346.50265672 -48.07049561 345.31732178 C-48.06752448 344.09025048 -48.06455336 342.86317919 -48.0614922 341.59892392 C-48.05431883 338.19570698 -48.05163343 334.79254053 -48.05089474 331.38931966 C-48.04904173 327.71775705 -48.04149317 324.04620534 -48.03475952 320.37464905 C-48.02118602 312.34773883 -48.01515309 304.32083362 -48.01074886 296.29391384 C-48.00798493 291.28075238 -48.00374731 286.26759284 -47.99924469 281.25443268 C-47.98705359 267.37103268 -47.97675378 253.48763421 -47.9733696 239.60422897 C-47.97315003 238.71591765 -47.97293047 237.82760633 -47.97270425 236.91237648 C-47.97248597 236.02195677 -47.97226769 235.13153706 -47.9720428 234.21413493 C-47.97159933 232.40984646 -47.97115277 230.605558 -47.97070312 228.80126953 C-47.97037098 227.45878941 -47.97037098 227.45878941 -47.97003213 226.08918849 C-47.96608428 211.58791112 -47.94862997 197.08668401 -47.9253436 182.58542606 C-47.90162201 167.69278888 -47.88916739 152.80017691 -47.88800168 137.90752053 C-47.88708541 129.54761025 -47.881345 121.18776546 -47.86318207 112.82787323 C-47.84777022 105.70922325 -47.84266703 98.590659 -47.85092017 91.4719955 C-47.85482277 87.84150345 -47.85391628 84.21118401 -47.83986282 80.58071327 C-47.82475094 76.64070977 -47.83300196 72.70094825 -47.84344482 68.76092529 C-47.83538842 67.61937603 -47.82733202 66.47782676 -47.81903148 65.30168509 C-47.86715454 57.53654258 -48.99507046 51.2055364 -52.8359375 44.41015625 C-59.13027662 38.77837914 -67.87439292 38.70427277 -75.91455078 38.01879883 C-83.60406254 37.32445843 -83.60406254 37.32445843 -86.2109375 35.28515625 C-88.05754545 31.27079114 -88.38116693 27.28761846 -87.6484375 22.97265625 C-85.90754257 19.71793964 -84.26153387 18.35903581 -81.2109375 16.28515625 C-78.0390625 15.37548828 -78.0390625 15.37548828 -74.4609375 14.79296875 C-73.49104385 14.62623405 -73.49104385 14.62623405 -72.5015564 14.45613098 C-71.12091344 14.21899828 -69.73922 13.98791433 -68.35662842 13.76242065 C-64.730751 13.16714967 -61.11518002 12.51612028 -57.5 11.859375 C-56.78365387 11.72940628 -56.06730774 11.59943756 -55.32925415 11.4655304 C-43.42110813 9.25916232 -31.93585122 5.76089661 -20.6484375 1.41015625 C-13.94062207 -1.07629261 -6.95593014 -2.24900215 0 0 Z " fill="#2156BE" transform="translate(1165.2109375,424.71484375)"/>
<path d="M0 0 C0.639375 -0.04898437 1.27875 -0.09796875 1.9375 -0.1484375 C5.3273643 0.71186897 6.80436321 2.72875901 9 5.375 C9.63085651 8.62957478 9.63085651 8.62957478 9.63923645 12.39216614 C9.64759213 13.08655861 9.6559478 13.78095108 9.66455668 14.49638575 C9.68645693 16.81687123 9.67289038 19.13576946 9.65942383 21.45629883 C9.66787796 23.122052 9.6785225 24.78779529 9.69119263 26.45352173 C9.71935416 30.9718143 9.71686472 35.48963238 9.70889878 40.00798631 C9.70577528 44.73128158 9.73080348 49.45442533 9.75285339 54.17765808 C9.79031852 63.12005043 9.80244285 72.06229069 9.8054778 81.00475377 C9.81016595 91.18612783 9.84308145 101.3673493 9.87837565 111.54865611 C9.95034008 132.49075337 9.98683171 153.43278866 10 174.375 C10.68031784 173.75590256 11.36063568 173.13680511 12.06156921 172.49894714 C12.95737198 171.68742691 13.85317474 170.87590668 14.77612305 170.03979492 C15.66269089 169.23507248 16.54925873 168.43035004 17.46269226 167.60124207 C38.36509194 149.26140858 67.6850677 141.634698 95 143.375 C124.59144877 146.09934901 151.35586525 159.65381617 170.6953125 182.47265625 C194.70022597 212.06074008 202.89047019 249.62098102 199.77294922 287.10498047 C195.94446347 322.33110064 178.3046789 354.11223062 151.19335938 376.89306641 C137.20322488 388.10826741 122.23666948 395.55029774 105 400.375 C103.19595703 400.88740234 103.19595703 400.88740234 101.35546875 401.41015625 C81.86190968 405.95090945 59.43620211 404.91928965 40 400.375 C39.29697754 400.21402832 38.59395508 400.05305664 37.86962891 399.88720703 C22.16614865 396.14211586 7.29452681 389.31405149 -5.75 379.80859375 C-7.97702993 378.10632545 -7.97702993 378.10632545 -11 378.375 C-11.21615967 378.95467529 -11.43231934 379.53435059 -11.6550293 380.1315918 C-12.65192434 382.78071129 -13.66945779 385.42143898 -14.6875 388.0625 C-15.02716797 388.97451172 -15.36683594 389.88652344 -15.71679688 390.82617188 C-18.00574538 396.70898344 -20.10357718 401.42678859 -26 404.375 C-30.59876684 404.92612923 -33.97787887 404.99253151 -38 402.5625 C-41.13398396 399.13470505 -41.12607917 396.30383677 -41.13307858 391.84158516 C-41.13731962 390.68365837 -41.14156067 389.52573159 -41.14593023 388.33271611 C-41.14535103 386.41559655 -41.14535103 386.41559655 -41.14476013 384.45974731 C-41.14789327 383.09286358 -41.15146794 381.7259808 -41.15544754 380.35909927 C-41.16515949 376.59424975 -41.16869833 372.8294154 -41.17129052 369.06455517 C-41.17518057 365.00705424 -41.18481842 360.94956676 -41.19384766 356.89207458 C-41.20879842 349.85635781 -41.22033794 342.82064211 -41.22979546 335.78491592 C-41.24366622 325.59821272 -41.26485493 315.41153435 -41.28822399 305.22484897 C-41.32616336 288.67985311 -41.36111948 272.13485273 -41.39282227 255.58984375 C-41.39472276 254.59907557 -41.39662325 253.60830739 -41.39858133 252.58751594 C-41.42538222 238.54401663 -41.44926281 224.50051385 -41.47196633 210.45700739 C-41.47356363 209.46927113 -41.47516094 208.48153486 -41.47680664 207.46386719 C-41.47840011 206.47733607 -41.47999357 205.49080496 -41.48163532 204.47437896 C-41.5084361 188.00427228 -41.54285203 171.53419188 -41.58346039 155.0641135 C-41.60819335 144.90909862 -41.62654354 134.75411197 -41.636616 124.59907179 C-41.64402751 117.63183947 -41.65858472 110.66464503 -41.67868023 103.69743784 C-41.69003081 99.6817136 -41.69820836 95.66605033 -41.69767189 91.65030861 C-41.69724093 87.9661155 -41.70606819 84.28205916 -41.72192169 80.59790121 C-41.72797617 78.65018279 -41.72438515 76.70244154 -41.72032636 74.75471795 C-41.38442184 58.93691336 -41.38442184 58.93691336 -48 45.375 C-53.66088136 41.67265055 -59.03724306 40.68040337 -65.6875 40.25 C-76.42919883 39.46422592 -76.42919883 39.46422592 -80 37.375 C-82.75531988 33.42570817 -82.67017742 29.00832536 -82 24.375 C-79.61514788 20.22359075 -77.42252382 18.90076276 -73 17.375 C-71.09855733 16.97618476 -69.18511871 16.63216742 -67.265625 16.33203125 C-66.14599365 16.14890381 -65.0263623 15.96577637 -63.87280273 15.77709961 C-62.07951538 15.4852478 -62.07951538 15.4852478 -60.25 15.1875 C-50.49647229 13.52514746 -40.95854303 11.51090363 -31.4375 8.8125 C-30.44717773 8.53188721 -29.45685547 8.25127441 -28.43652344 7.9621582 C-22.69210828 6.28337383 -17.08264529 4.36367118 -11.49243164 2.22680664 C-7.74146137 0.94488527 -3.9581867 0.20748559 0 0 Z M14 191.375 C12.7131707 192.25656013 12.7131707 192.25656013 11.40034485 193.15592957 C7.13594841 197.50618564 8.28194279 204.24921943 8.30541992 209.9074707 C8.293726 211.30096755 8.2799547 212.69444828 8.26426697 214.08790588 C8.22867179 217.86971254 8.22515191 221.65090592 8.22957778 225.43285394 C8.23076964 228.60044305 8.21730316 231.7679057 8.20419484 234.93546265 C8.17385892 242.4226415 8.17054164 249.9095092 8.18334961 257.39672852 C8.19598145 265.08539971 8.16102126 272.77280768 8.10246581 280.46123821 C8.05388385 287.08496469 8.03682645 293.70829046 8.04394037 300.33219022 C8.04779383 304.27780955 8.04006548 308.2224813 8.00133324 312.16793251 C7.82525254 331.68493233 8.34771246 346.26529917 21.4375 361.875 C22.93643756 363.39688048 24.45665188 364.8981755 26 366.375 C26.68578125 367.08011719 27.3715625 367.78523437 28.078125 368.51171875 C39.31158852 379.43314162 54.03946746 384.28149901 69.5 384.75 C87.03762402 384.21855685 101.76506527 377.94285812 114 365.375 C114.75796875 364.63765625 115.5159375 363.9003125 116.296875 363.140625 C138.71430212 340.1047861 143.675829 304.8431487 144.25 274.125 C143.60796224 242.58961583 136.02884195 211.13517213 113 188.375 C99.07522063 175.51266322 82.05728046 171.02906695 63.4296875 171.22265625 C44.43967102 172.06617634 28.19435682 178.80354746 14 191.375 Z " fill="#2156BE" transform="translate(848,423.625)"/>
<path d="M0 0 C25.62400325 -0.80628977 53.18199526 2.29824683 73.25830078 19.63818359 C89.01897447 34.61438936 96.00449327 53.83552966 103.27001953 73.78173828 C104.88880342 78.22126068 106.53765747 82.6492692 108.19189453 87.07568359 C110.80415928 94.06926519 113.40972564 101.06528431 116.00830078 108.06396484 C116.37645401 109.05546036 116.74460724 110.04695587 117.12391663 111.0684967 C117.92469974 113.22524011 118.72545418 115.38199416 119.52618408 117.53875732 C121.77325035 123.59065799 124.02117876 129.64223843 126.26901436 135.69385338 C127.65910756 139.43627259 129.04915923 143.17870723 130.43920898 146.92114258 C130.7192361 147.67505815 130.99926321 148.42897371 131.28777599 149.20573521 C133.27827686 154.56477942 135.26867152 159.92386307 137.2590332 165.28295898 C146.00326956 188.82803084 146.00326956 188.82803084 154.75488281 212.37036133 C155.70438102 214.92366399 156.65322511 217.47720908 157.60205078 220.03076172 C160.53884089 227.92950385 163.49430521 235.82065086 166.48095703 243.70068359 C167.05670154 245.22295874 167.63238665 246.74525634 168.20800781 248.26757812 C169.26586967 251.06500396 170.33006705 253.85989354 171.3984375 256.65332031 C171.85621582 257.86262207 172.31399414 259.07192383 172.78564453 260.31787109 C173.18654297 261.36910156 173.58744141 262.42033203 174.00048828 263.50341797 C174.84814453 266.09912109 174.84814453 266.09912109 174.84814453 269.09912109 C175.50814453 269.09912109 176.16814453 269.09912109 176.84814453 269.09912109 C177.11280518 267.81312012 177.37746582 266.52711914 177.65014648 265.20214844 C178.77442014 260.1567206 180.32920268 255.33230407 182.01611328 250.45068359 C182.32736145 249.53791153 182.63860962 248.62513947 182.95928955 247.68470764 C183.97993478 244.69617624 185.00764771 241.71013085 186.03564453 238.72412109 C186.75931933 236.61069366 187.48270341 234.49716665 188.20581055 232.38354492 C193.14820727 217.95711728 198.16226276 203.5559335 203.20443726 189.16412354 C208.70926347 173.44906332 214.08305116 157.69142817 219.42483521 141.92028809 C224.14083209 128.00078695 228.91622387 114.10438528 233.77804565 100.23513794 C235.61111648 95.00121732 237.43433781 89.76385718 239.25740051 84.52644348 C240.68499561 80.42712222 242.11791408 76.32983956 243.56347656 72.23681641 C244.90967472 68.42308511 246.23773924 64.60349969 247.55255127 60.77883911 C248.03077762 59.39769226 248.51531599 58.01871008 249.00701904 56.64230347 C251.79296728 48.83305024 254.7622064 40.45671071 252.84814453 32.09912109 C245.99121109 25.56758608 235.12197812 26.47250035 226.30126953 25.97607422 C225.25970703 25.90453125 224.21814453 25.83298828 223.14501953 25.75927734 C222.19981445 25.70392822 221.25460937 25.6485791 220.28076172 25.59155273 C217.46786083 25.02214074 216.54975844 24.37389956 214.84814453 22.09912109 C213.01352998 16.59527743 213.15326839 11.0447743 215.09814453 5.59912109 C217.01668085 2.85835492 217.75888891 2.21105974 220.84814453 1.09912109 C224.1081543 0.96386719 224.1081543 0.96386719 228.03955078 1.12255859 C228.75990509 1.14767517 229.4802594 1.17279175 230.22244263 1.19866943 C231.79162488 1.25362482 233.36065951 1.31292661 234.92953491 1.3760376 C239.22184305 1.54572159 243.51536724 1.67392936 247.80908203 1.80224609 C249.16059608 1.84316879 249.16059608 1.84316879 250.53941345 1.88491821 C260.53779431 2.17259608 270.53363472 2.22671629 280.53564453 2.22412109 C281.42810883 2.2247757 282.32057312 2.2254303 283.24008179 2.22610474 C292.89096819 2.2268687 302.52747653 2.11808596 312.17236328 1.76708984 C312.98825424 1.73832764 313.8041452 1.70956543 314.64476013 1.67993164 C318.48198172 1.54158793 322.31671612 1.38376119 326.15161133 1.19140625 C327.50616986 1.13553929 328.86074269 1.0800173 330.21533203 1.02490234 C331.38177246 0.96729736 332.54821289 0.90969238 333.75 0.8503418 C337.26985212 1.13298398 339.04324462 1.99718382 341.84814453 4.09912109 C345.16521199 9.31165567 344.26673191 16.22880763 343.41064453 22.09912109 C341.29692772 24.80467861 339.09554335 25.19599473 335.79736328 25.77490234 C332.21556659 26.16866278 328.6328868 26.35665287 325.03564453 26.53662109 C311.41308282 27.23529543 299.33859846 30.38894638 289.80126953 40.67724609 C279.22689528 53.78947016 274.49698444 70.47589223 268.84814453 86.09912109 C268.22098195 87.82849262 267.59369859 89.55782034 266.96630859 91.28710938 C261.99921537 104.98964607 257.07912975 118.70897675 252.1630249 132.42987061 C248.16141513 143.59659645 244.15497086 154.76158879 240.14617157 165.92573547 C239.65529853 167.29277874 239.16445896 168.65983402 238.67365265 170.02690125 C231.06083447 191.23046582 223.37613375 212.40660829 215.62963867 233.56176758 C201.18584702 273.0081858 187.00533593 312.54911878 172.84814453 352.09912109 C163.93814453 352.09912109 155.02814453 352.09912109 145.84814453 352.09912109 C142.7884201 344.75578247 139.81825361 337.50648299 137.16064453 330.02880859 C136.82551849 329.09425339 136.49039246 328.15969818 136.14511108 327.19682312 C135.42198644 325.17938443 134.70021179 323.16146143 133.97967529 321.14309692 C132.4111611 316.75030113 130.83511423 312.36021866 129.25961304 307.96992493 C128.42076517 305.63222266 127.58224942 303.29440119 126.74404907 300.95646667 C121.92528764 287.51706972 117.08021569 274.08721631 112.22314453 260.66162109 C111.5570668 258.82046219 111.5570668 258.82046219 110.87753296 256.94210815 C104.26600346 238.67736544 97.55188734 220.45356098 90.75502014 202.2571106 C86.18832703 190.02985431 81.66337453 177.78757286 77.16064453 165.53662109 C76.79340271 164.53802063 76.42616089 163.53942017 76.04779053 162.51055908 C71.68034439 150.6288836 67.34762917 138.73506383 63.05899239 126.82472801 C62.35606372 124.87285484 61.65258985 122.92117898 60.94895935 120.96955872 C60.48133688 119.67233885 60.01373125 118.37511291 59.54614258 117.07788086 C59.31543784 116.43784528 59.0847331 115.7978097 58.84703732 115.1383791 C57.28970397 110.81592984 55.73975463 106.49087346 54.19116211 102.1652832 C41.42006782 59.67775022 41.42006782 59.67775022 12.2355957 29.10473633 C6.86164651 26.84118211 1.10428275 25.67823759 -4.54638672 24.30029297 C-5.49642578 24.05730469 -6.44646484 23.81431641 -7.42529297 23.56396484 C-8.28558105 23.35376709 -9.14586914 23.14356934 -10.03222656 22.92700195 C-12.15185547 22.09912109 -12.15185547 22.09912109 -14.15185547 19.09912109 C-14.48779297 15.88427734 -14.48779297 15.88427734 -14.52685547 12.16162109 C-14.56939453 10.32277344 -14.56939453 10.32277344 -14.61279297 8.44677734 C-14.15185547 5.09912109 -14.15185547 5.09912109 -12.62841797 2.72021484 C-8.65751287 0.12096309 -4.58728528 0.2113045 0 0 Z " fill="#2156BE" transform="translate(66.15185546875,473.90087890625)"/>
<path d="M0 0 C1.15048828 1.08861328 1.15048828 1.08861328 2.32421875 2.19921875 C2.97777344 2.81152344 3.63132812 3.42382812 4.3046875 4.0546875 C18.52367465 18.77589053 20.4741702 39.40179157 20.46606445 58.81274414 C20.46910136 60.17873242 20.47262427 61.54471968 20.47659302 62.91070557 C20.48444371 65.84020663 20.48961249 68.76969573 20.49288368 71.6992054 C20.49883456 76.34568557 20.51541447 80.99209078 20.53422546 85.63853455 C20.54056197 87.23503585 20.5468876 88.8315372 20.55320263 90.4280386 C20.55636844 91.2273171 20.55953425 92.02659561 20.562796 92.85009468 C20.60471465 103.65517681 20.63781758 114.46022279 20.65014648 125.26538086 C20.65856665 132.57021682 20.68120074 139.87486522 20.71950215 147.17960733 C20.73912728 151.03486863 20.75171295 154.88985049 20.74666786 158.74516487 C20.74196995 162.37910363 20.75610176 166.01251451 20.78367996 169.64634705 C20.79371843 171.58878788 20.78442742 173.53129986 20.77418518 175.47373962 C20.89319665 186.88509407 22.44675968 199.59075763 30.28125 208.4609375 C36.02890625 213.35139071 42.72603605 214.62402477 50.09765625 214.828125 C52.96031978 215.30523559 54.2933371 216.13199022 56.32421875 218.19921875 C57.15824096 221.59282637 56.93820968 224.77293007 56.32421875 228.19921875 C52.45359607 234.06758217 46.18567307 235.38983095 39.640625 236.76171875 C20.86945614 239.23800958 3.93675909 236.57599012 -11.5078125 225.09375 C-20.98471747 217.06608687 -25.24080363 207.95896565 -28.67578125 196.19921875 C-29.14886719 196.88886719 -29.62195312 197.57851563 -30.109375 198.2890625 C-45.08167491 219.56548868 -66.279303 231.2577772 -91.66894531 236.16943359 C-115.70382039 240.06962561 -140.36751499 238.04814715 -160.94921875 224.2578125 C-170.88360397 216.75720933 -177.395624 208.30618482 -182.67578125 197.19921875 C-183.35833984 195.77996094 -183.35833984 195.77996094 -184.0546875 194.33203125 C-187.00639066 186.74193742 -187.04965403 179.20146906 -187.11328125 171.13671875 C-187.12875 169.50428223 -187.12875 169.50428223 -187.14453125 167.83886719 C-186.96927209 151.70041979 -181.98299416 136.90696679 -170.55078125 125.32421875 C-135.42276119 91.40541615 -74.33472643 92.54853908 -28.67578125 90.19921875 C-28.71781532 82.78305002 -28.79049084 75.36760976 -28.88330078 67.9519043 C-28.91132132 65.43536978 -28.93262869 62.91875035 -28.94677734 60.40209961 C-29.01846008 31.92151582 -29.01846008 31.92151582 -42.33203125 7.30078125 C-54.39576463 -3.90938609 -71.46516938 -5.64159079 -87.21875 -5.14453125 C-98.13621291 -4.49948174 -108.88702317 0.30413655 -116.58984375 8.1484375 C-122.82213002 15.96182103 -125.18827777 24.84600777 -124.49609375 34.77734375 C-122.99419366 44.76957702 -117.07485954 50.26497129 -109.3359375 56.2421875 C-107.67578125 58.19921875 -107.67578125 58.19921875 -107.7265625 60.7109375 C-109.51129051 65.38942203 -113.23139319 68.76987319 -117.51953125 71.27734375 C-127.45277635 75.72116392 -137.64140424 74.89261082 -147.67578125 71.19921875 C-157.61771733 65.79733088 -163.45068353 55.77037238 -166.67578125 45.19921875 C-169.45398294 30.93647907 -167.56692752 16.70227617 -159.54296875 4.47265625 C-146.55330549 -12.56169257 -122.56839168 -18.85408194 -102.43823242 -21.85571289 C-68.8296443 -26.15718814 -26.56227474 -23.38591902 0 0 Z M-117.83203125 132.171875 C-128.02940066 143.38466043 -131.80715856 157.27147208 -131.67578125 172.19921875 C-131.05921373 182.47167411 -129.22920534 192.29585103 -121.42578125 199.57421875 C-111.73411747 207.04399455 -100.54709312 208.21383716 -88.67578125 207.19921875 C-69.45514135 204.40472855 -53.46690441 194.58079202 -41.67578125 179.19921875 C-33.14019904 166.28213874 -28.48308708 153.40406814 -28.578125 137.86328125 C-28.57953995 136.98392914 -28.5809549 136.10457703 -28.58241272 135.19857788 C-28.58798248 132.40708933 -28.60052935 129.61568281 -28.61328125 126.82421875 C-28.61830016 124.92448033 -28.62286238 123.02474065 -28.62695312 121.125 C-28.637942 116.48304161 -28.65518568 111.84114406 -28.67578125 107.19921875 C-56.83581607 106.93230927 -96.28576278 111.9943244 -117.83203125 132.171875 Z " fill="#2156BE" transform="translate(1590.67578125,589.80078125)"/>
<path d="M0 0 C0.96486328 0.87398437 0.96486328 0.87398437 1.94921875 1.765625 C2.64402344 2.36890625 3.33882812 2.9721875 4.0546875 3.59375 C15.59776002 14.24889387 21.24996023 30.55858244 22.13489914 46.00707054 C22.20514281 49.63518298 22.21635047 53.25867393 22.20458984 56.88745117 C22.20734672 58.27196457 22.21103081 59.65647638 22.21556091 61.04098511 C22.22361528 64.00155468 22.22585598 66.96204899 22.22361374 69.9226284 C22.22075474 74.62005524 22.2352293 79.31733481 22.25259399 84.01472473 C22.29937263 97.36534425 22.32354114 110.71595243 22.33007812 124.06665039 C22.33384891 131.4564705 22.35203648 138.84612223 22.38517249 146.23587018 C22.40194162 150.13305298 22.41129818 154.02992982 22.40223312 157.927145 C21.15563713 185.59494875 21.15563713 185.59494875 32.66015625 209.59375 C33.20929688 210.06296875 33.7584375 210.5321875 34.32421875 211.015625 C34.86820313 211.49515625 35.4121875 211.9746875 35.97265625 212.46875 C41.44206 216.05737064 47.78549646 216.3279653 54.12109375 217.0078125 C56.94921875 217.765625 56.94921875 217.765625 58.31640625 219.62109375 C59.5871138 223.92738046 59.61816457 227.3958788 57.63671875 231.453125 C47.28990393 240.35619822 30.80342901 239.71349381 17.94921875 238.765625 C4.80457943 236.83109711 -8.34649847 229.8480901 -16.875 219.56640625 C-21.34495702 213.11480581 -24.16067674 206.01623807 -27.05078125 198.765625 C-27.42847656 199.28769531 -27.80617188 199.80976562 -28.1953125 200.34765625 C-44.8979293 222.68300565 -67.35675151 233.23755922 -94.30078125 238.38671875 C-118.65859021 240.84787236 -141.90100259 238.74879375 -162.05078125 223.765625 C-174.54583132 213.45257708 -182.9403651 198.84777773 -185.05078125 182.765625 C-186.25705934 163.33795096 -183.94098127 144.69640998 -170.73828125 129.390625 C-155.12596768 113.35918892 -135.92149112 106.2028834 -114.48828125 101.140625 C-113.68181152 100.94637939 -112.8753418 100.75213379 -112.04443359 100.55200195 C-94.42017636 96.59049382 -76.27508456 95.19692934 -58.3034668 93.83032227 C-54.93158341 93.57381181 -51.5605118 93.30812866 -48.18945312 93.04101562 C-46.02738406 92.87187971 -43.86527607 92.70324053 -41.703125 92.53515625 C-40.70425766 92.4570723 -39.70539032 92.37898834 -38.67625427 92.29853821 C-37.74660355 92.22813828 -36.81695282 92.15773834 -35.85913086 92.08520508 C-35.04834579 92.02319412 -34.23756073 91.96118317 -33.40220642 91.89729309 C-30.94685789 91.75980581 -28.50945324 91.74329747 -26.05078125 91.765625 C-26.14552472 85.64966463 -26.25185825 79.53404543 -26.36816406 73.41845703 C-26.40605105 71.34526844 -26.44096765 69.27202306 -26.47265625 67.19873047 C-26.33449403 35.63615621 -26.33449403 35.63615621 -41.05078125 8.765625 C-46.61918587 3.49278326 -52.7566101 0.91461593 -60.05078125 -1.234375 C-60.79585938 -1.46125 -61.5409375 -1.688125 -62.30859375 -1.921875 C-76.09927473 -5.38155803 -92.39929573 -4.66501588 -104.85546875 2.34375 C-113.94749774 8.33315782 -119.63299247 14.98065706 -122.05078125 25.765625 C-123.0951297 35.4205199 -122.35437754 42.23825725 -116.40234375 49.8828125 C-113.26449312 53.62356893 -110.01488203 56.88264261 -106.05078125 59.765625 C-106.17012017 63.70380945 -107.60221928 65.65585587 -110.23828125 68.390625 C-116.67613308 74.43432263 -123.17911965 76.08044236 -131.9140625 75.9140625 C-141.66475153 75.23668374 -148.51257939 71.68120054 -155.23828125 64.640625 C-163.59892174 54.65384815 -166.52535359 42.98588757 -165.859375 30.046875 C-164.1045249 15.50217151 -158.81334725 5.86129679 -147.36328125 -3.421875 C-109.52916119 -29.92077258 -36.02252294 -30.46476225 0 0 Z M-115.828125 134.41796875 C-127.34022202 146.57749477 -129.47497668 160.78761494 -129.26171875 176.859375 C-128.98172468 186.02658834 -126.30306394 193.89599507 -120.05078125 200.765625 C-110.15170028 208.62765019 -99.36200117 209.76314949 -87.05078125 208.765625 C-70.22728649 206.29906945 -56.81512688 198.8367097 -45.05078125 186.765625 C-44.4578125 186.18167969 -43.86484375 185.59773438 -43.25390625 184.99609375 C-27.41177213 168.17447285 -25.86366215 146.51715547 -25.98828125 124.640625 C-25.99330775 123.09635562 -25.99786861 121.55208466 -26.00195312 120.0078125 C-26.01286428 116.26038313 -26.03006511 112.51301451 -26.05078125 108.765625 C-55.05341384 108.48934528 -93.94770171 113.64717073 -115.828125 134.41796875 Z " fill="#2156BE" transform="translate(535.05078125,588.234375)"/>
<path d="M0 0 C22.96826248 -1.04048248 45.09668745 2.47558628 62.81103516 18.11669922 C73.94763274 28.47072508 80.62990262 42.14746461 86.46337891 55.94091797 C86.84933007 56.84769035 86.84933007 56.84769035 87.24307823 57.77278137 C92.54833835 70.24509454 97.45071944 82.86452447 102.26208496 95.53500366 C113.88691904 126.11755212 125.93630144 156.47373872 139.81103516 186.11669922 C142.43084281 180.35256426 144.86789775 174.55528996 147.10400391 168.63232422 C147.40695374 167.83600082 147.70990356 167.03967743 148.02203369 166.21922302 C149.01669122 163.60265313 150.00766668 160.98470609 150.99853516 158.36669922 C151.70742192 156.49919962 152.41649152 154.63176943 153.12573242 152.7644043 C155.35818424 146.88335478 157.58513181 141.00022983 159.81103516 135.11669922 C160.16609131 134.17848328 160.52114746 133.24026733 160.88696289 132.27362061 C165.10753216 121.12054492 169.32080469 109.96472684 173.53009033 98.80738831 C176.21286672 91.69780217 178.90177844 84.59055053 181.59228516 77.48388672 C182.76523436 74.38427991 183.93807512 71.2846321 185.11087036 68.18496704 C185.86281007 66.19830438 186.6151428 64.21179042 187.3678894 62.22543335 C188.41120293 59.47214322 189.45306775 56.7183089 190.49462891 53.96435547 C190.80215088 53.1539682 191.10967285 52.34358093 191.42651367 51.50863647 C195.77693434 40.15810074 195.77693434 40.15810074 195.81103516 28.11669922 C191.90763547 24.43015507 186.91358712 24.03294523 181.71337891 23.75732422 C180.74722656 23.69287109 179.78107422 23.62841797 178.78564453 23.56201172 C176.75795383 23.4316136 174.72918237 23.31707026 172.69970703 23.21826172 C165.34621263 22.6877491 165.34621263 22.6877491 162.65478516 19.81591797 C161.23197146 15.26423156 160.62114666 10.69479096 162.67822266 6.23779297 C163.90149914 4.3850202 165.23850193 2.68923244 166.81103516 1.11669922 C176.47613724 0.63201858 186.21468468 1.22569692 195.87353516 1.61669922 C212.2170339 2.26508882 228.47048086 2.38025144 244.81103516 1.61669922 C248.47762522 1.44828021 252.14426684 1.28119365 255.81103516 1.11669922 C256.60171387 1.0797998 257.39239258 1.04290039 258.20703125 1.00488281 C260.30425529 0.91576564 262.40007543 0.85461267 264.49853516 0.80419922 C265.63677734 0.76681641 266.77501953 0.72943359 267.94775391 0.69091797 C271.50478969 1.21986326 272.61074404 2.33928256 274.81103516 5.11669922 C276.09385878 7.68234647 276.01495468 9.62702991 276.06103516 12.49169922 C276.08681641 13.44818359 276.11259766 14.40466797 276.13916016 15.39013672 C275.73199888 18.773453 275.47913855 19.94452582 272.81103516 22.11669922 C269.54305985 22.8191389 266.26834107 22.94893745 262.93603516 23.11669922 C249.84479211 24.06671686 238.6709321 26.12015068 228.99853516 35.67919922 C216.37541386 50.62763233 210.80342288 72.55685961 203.77742004 90.55957031 C200.36148451 99.29577998 196.8462252 107.99069285 193.31103516 116.67919922 C192.84579437 117.82326736 192.84579437 117.82326736 192.37115479 118.990448 C191.116398 122.07582025 189.86134148 125.16106982 188.60531616 128.2459259 C186.46264966 133.50948434 184.32947332 138.7768079 182.20166016 144.04638672 C172.58390723 167.85580977 162.80473898 191.59722454 152.9708252 215.31811523 C151.82001902 218.09502108 150.67034076 220.8723913 149.52099609 223.64990234 C147.74220431 227.94806755 145.96077296 232.24512813 144.17700195 236.54122925 C143.52044545 238.12335816 142.8646736 239.70581293 142.2097168 241.28860474 C141.3161881 243.44714697 140.41954028 245.60436522 139.52197266 247.76123047 C139.01972168 248.97141846 138.5174707 250.18160645 138 251.4284668 C136.81103516 254.11669922 136.81103516 254.11669922 135.81103516 255.11669922 C134.03032269 255.20396145 132.24620376 255.22368963 130.46337891 255.21435547 C129.38378906 255.21113281 128.30419922 255.20791016 127.19189453 255.20458984 C126.05558594 255.19621094 124.91927734 255.18783203 123.74853516 255.17919922 C122.60835937 255.1746875 121.46818359 255.17017578 120.29345703 255.16552734 C117.46593164 255.15369669 114.63850876 255.13721331 111.81103516 255.11669922 C106.12880044 244.26253026 101.35029963 233.151187 96.74853516 221.80419922 C96.36930908 220.87395935 95.99008301 219.94371948 95.59936523 218.98529053 C88.80699653 202.31333546 82.27682595 185.54257183 75.81103516 168.74169922 C75.34743591 167.53718109 74.88383667 166.33266296 74.40618896 165.09164429 C70.78233422 155.67225238 67.1627342 146.25121985 63.55010986 136.82751465 C52.59000537 108.23996784 41.20193482 80.05965629 27.64306641 52.59326172 C27.32316742 51.93887115 27.00326843 51.28448059 26.67367554 50.61026001 C20.97145253 39.16623951 14.32821268 31.16181963 2.28759766 26.27685547 C-2.71525922 24.60736278 -7.73863281 23.72435665 -12.93896484 22.89013672 C-16.22156282 22.10894153 -17.90360252 21.57828225 -20.18896484 19.11669922 C-20.90380859 16.62841797 -20.90380859 16.62841797 -21.12646484 13.80419922 C-21.21798828 12.87994141 -21.30951172 11.95568359 -21.40380859 11.00341797 C-21.12653938 7.27792794 -20.36248175 5.16747898 -18.18896484 2.11669922 C-15.02880859 1.09326172 -15.02880859 1.09326172 -11.12646484 0.74169922 C-10.42038086 0.67700439 -9.71429687 0.61230957 -8.98681641 0.5456543 C-5.99392488 0.29953267 -2.99841929 0.15985327 0 0 Z " fill="#2156BF" transform="translate(1672.18896484375,570.88330078125)"/>
<path d="M0 0 C2.62021651 4.00738995 2.20948078 8.26844987 2.20726013 12.85964966 C2.21078698 13.70932528 2.21431382 14.55900091 2.21794754 15.43442428 C2.22865428 18.29238857 2.232319 21.15031954 2.23608398 24.00830078 C2.24238789 26.05322918 2.24915351 28.0981562 2.25634766 30.14308167 C2.27103107 34.55306843 2.28275051 38.96304985 2.29229546 43.37305069 C2.3077348 50.34881329 2.33168506 57.32453034 2.35719299 64.30026245 C2.42842663 84.13894777 2.48813442 103.97765941 2.53930664 123.81640625 C2.56763176 134.76841061 2.60302697 145.72036987 2.64596039 156.67232692 C2.67270437 163.60350071 2.69062742 170.53462347 2.70199764 177.46583867 C2.71114095 181.78526158 2.72851145 186.10462271 2.74817657 190.42400932 C2.75563339 192.42301777 2.75973201 194.42204208 2.76017189 196.42106438 C2.76125978 199.15698085 2.77455563 201.8925856 2.79075623 204.62844849 C2.78813937 205.41339475 2.78552252 206.19834101 2.78282636 207.00707352 C2.854834 214.83046748 3.72037231 222.57996077 9.0625 228.625 C15.78677407 233.2460194 22.73370794 233.38616331 30.63671875 233.7578125 C37.47373741 234.20903611 37.47373741 234.20903611 40.64453125 236.44921875 C42.75100207 239.68146186 43.25971913 242.8426189 43.0625 246.625 C42.09064396 250.18615821 40.70143378 252.98606622 38.0625 255.625 C35.92505169 255.88785553 35.92505169 255.88785553 33.2240448 255.90588379 C32.20199448 255.91730408 31.17994415 255.92872437 30.12692261 255.94049072 C29.00117828 255.94272644 27.87543396 255.94496216 26.71557617 255.94726562 C25.53337997 255.95719543 24.35118378 255.96712524 23.13316345 255.97735596 C19.88509257 256.00159882 16.63716576 256.01649631 13.38902068 256.02537727 C11.35974688 256.03123765 9.33049571 256.03944709 7.30123329 256.04838562 C0.95219819 256.07574045 -5.39678522 256.09507055 -11.74587518 256.1027894 C-19.07508536 256.11174865 -26.40354912 256.14683091 -33.73253232 256.20479059 C-39.39716298 256.24803264 -45.06158372 256.26819838 -50.72637767 256.27087164 C-54.10990271 256.27296753 -57.49272638 256.28477369 -60.87607765 256.32051086 C-64.65209377 256.354552 -68.42628607 256.35089285 -72.20239258 256.33789062 C-73.32206421 256.35632019 -74.44173584 256.37474976 -75.59533691 256.39373779 C-82.96988433 256.31402971 -82.96988433 256.31402971 -85.75038719 254.33406067 C-88.4746355 251.20987705 -89.57479234 248.61185527 -89.375 244.5 C-89.35308594 243.67242188 -89.33117187 242.84484375 -89.30859375 241.9921875 C-88.91493987 239.48109013 -88.28070125 237.77603403 -86.9375 235.625 C-84.62051518 234.46650759 -82.97504392 234.38134536 -80.39453125 234.1953125 C-79.48509766 234.12183594 -78.57566406 234.04835938 -77.63867188 233.97265625 C-75.73289483 233.82576066 -73.82663357 233.68500112 -71.91992188 233.55078125 C-64.80522839 232.9599763 -59.45449359 232.03012721 -54.125 226.9375 C-48.77969106 218.84317503 -49.64562913 209.52050104 -49.6628418 200.18798828 C-49.65848932 198.62669634 -49.65330439 197.06540654 -49.64735413 195.50411987 C-49.63401017 191.28089211 -49.63338033 187.0577541 -49.63591743 182.83450937 C-49.63699031 179.30090651 -49.63209563 175.76732157 -49.627312 172.23372257 C-49.61623264 163.89294322 -49.6157705 155.55220892 -49.62182617 147.21142578 C-49.62786466 138.62494307 -49.61555453 130.03862429 -49.5942561 121.45216954 C-49.57660659 114.06336748 -49.57064404 106.67461744 -49.57389385 99.28579509 C-49.57570158 94.88019339 -49.57312167 90.47470862 -49.55917931 86.06912613 C-49.546551 81.92398497 -49.54859205 77.77909824 -49.56159019 73.63396072 C-49.56394471 72.11912447 -49.56126195 70.60427003 -49.55296707 69.08945465 C-49.12469598 55.79674262 -49.12469598 55.79674262 -54.28321362 43.98709297 C-60.71016925 38.26278182 -67.84449016 38.09434222 -75.98828125 37.50195312 C-80.67587672 37.0922499 -84.12231834 36.64535215 -87.9375 33.625 C-89.21658458 31.06683084 -89.17724681 29.10652006 -89.25 26.25 C-89.28738281 25.29351563 -89.32476563 24.33703125 -89.36328125 23.3515625 C-88.81027959 19.81032254 -87.66572185 18.89665055 -84.9375 16.625 C-82.33496094 15.65722656 -82.33496094 15.65722656 -79.421875 15.015625 C-78.35775391 14.77650391 -77.29363281 14.53738281 -76.19726562 14.29101562 C-72.20714424 13.47577812 -68.21472411 12.68433645 -64.2109375 11.93896484 C-48.03087277 8.92088106 -32.35128797 4.51439492 -16.76977539 -0.76416016 C-11.35099741 -2.57066016 -4.95399441 -3.51573797 0 0 Z " fill="#2156BE" transform="translate(710.9375,566.375)"/>
<path d="M0 0 C2.38629805 1.13061501 4.16366704 2.14028603 6.1875 3.875 C13.5160186 9.41210295 20.97322175 10.63628545 29.9375 11.5078125 C30.948125 11.67023438 31.95875 11.83265625 33 12 C34.27851237 14.55702473 34.12417456 16.34827434 34.12304783 19.21241951 C34.12503888 20.3241214 34.12702993 21.43582329 34.12908131 22.58121312 C34.12616847 23.81270899 34.12325563 25.04420487 34.12025452 26.3130188 C34.12110894 27.6132973 34.12196337 28.9135758 34.12284368 30.25325668 C34.1250883 33.87444948 34.1210678 37.49561292 34.11606562 41.11680198 C34.11176084 45.01728044 34.11320756 48.91775714 34.1139679 52.8182373 C34.11449311 59.58008341 34.11134654 66.34191989 34.10573006 73.10376358 C34.09761476 82.88034272 34.09499981 92.65691718 34.09374207 102.43349932 C34.09155159 118.29404776 34.08489163 134.15459107 34.07543945 150.01513672 C34.06626521 165.42529271 34.05918444 180.8354473 34.05493164 196.24560547 C34.05466892 197.19494462 34.05440619 198.14428376 34.05413551 199.12239076 C34.0528305 203.88478414 34.05156679 208.64717753 34.05032361 213.40957093 C34.03995114 252.93971755 34.02233295 292.46985844 34 332 C33.34 331.67 32.68 331.34 32 331 C31.54296875 329.06640625 31.54296875 329.06640625 31.1875 326.5625 C29.69231054 318.40904498 26.38485575 311.42712739 20 306 C19.21633057 305.53086182 18.43266113 305.06172363 17.62524414 304.57836914 C13.6011003 300.62607833 12.32866081 295.87854247 10.49609375 290.62109375 C10.09093033 289.49864761 9.68576691 288.37620148 9.26832581 287.21974182 C7.97661039 283.63075801 6.70677888 280.03447219 5.4375 276.4375 C4.58021869 274.04310278 3.72150976 271.64921619 2.86132812 269.25585938 C0.95052265 263.93188577 -0.94652554 258.60324187 -2.83131409 253.27000427 C-3.50264152 251.39161801 -4.20802876 249.52309553 -5.00557518 247.69472599 C-8.24101978 239.87127973 -8.5560011 232.73360804 -8.48242188 224.35571289 C-8.48461279 222.91544729 -8.4886172 221.47518351 -8.49427795 220.03492737 C-8.50278684 216.95474764 -8.49913951 213.87491793 -8.4858551 210.79475594 C-8.46536465 205.91354799 -8.47556188 201.03268588 -8.4901123 196.151474 C-8.5190323 184.90932663 -8.50843833 173.66728389 -8.49741364 162.42511749 C-8.48771338 152.11619544 -8.48657636 141.80745668 -8.51729441 131.49856561 C-8.53058645 126.65708728 -8.52482573 121.8161376 -8.50392914 116.97469151 C-8.49487862 113.9508819 -8.50247457 110.92727151 -8.51434135 107.90347862 C-8.51645357 106.51364068 -8.51186111 105.12377168 -8.4996357 103.7339859 C-8.40041823 91.76976531 -10.13912175 81.23726788 -18.08984375 71.90234375 C-24.85013089 65.16970605 -33.66311631 61.98807198 -43.125 61.5625 C-49.39830593 61.72358346 -55.28539436 63.37239999 -61.30078125 65.02734375 C-64.53373269 65.87740173 -67.69591932 66.51335246 -71 67 C-71.83764268 65.04350603 -72.66999059 63.08474444 -73.5 61.125 C-73.9640625 60.03445313 -74.428125 58.94390625 -74.90625 57.8203125 C-76 55 -76 55 -76 53 C-75.37134033 53.01571045 -74.74268066 53.0314209 -74.0949707 53.04760742 C-54.11400138 53.48074469 -36.30653333 52.37431105 -20.5625 38.5625 C-19.02162537 37.06197561 -17.49914914 35.54221267 -16 34 C-15.35417969 33.37480469 -14.70835937 32.74960937 -14.04296875 32.10546875 C-5.54130619 23.30745194 -2.19420814 11.76018575 0 0 Z " fill="#2156BE" transform="translate(747,477)"/>
<path d="M0 0 C0.97976807 0.01015137 1.95953613 0.02030273 2.96899414 0.03076172 C4.0806897 0.05033936 4.0806897 0.05033936 5.21484375 0.0703125 C5.58544922 1.08714111 5.95605469 2.10396973 6.33789062 3.15161133 C13.27098256 22.16688778 20.22795525 41.17313461 27.28250122 60.14373779 C28.27771744 62.8213179 29.27058336 65.49976232 30.26342773 68.17822266 C33.56042603 77.05567312 36.91574907 85.90556982 40.37109375 94.72265625 C41.35773619 97.25889019 42.34319369 99.79558152 43.32833862 102.33239746 C44.25216803 104.69346977 45.19507881 107.04628482 46.13891602 109.39941406 C46.69773098 110.83491559 47.25564429 112.27076856 47.8125 113.70703125 C48.07305176 114.33842514 48.33360352 114.96981903 48.60205078 115.62034607 C50.92786791 121.73598091 50.29552147 126.60570565 47.68359375 132.5625 C40.69596074 144.56902814 33.790388 154.10543734 20.21484375 159.0703125 C8.94224179 161.3783109 -1.64208732 160.18913564 -11.390625 153.91015625 C-17.23113758 149.4225846 -22.07820515 143.95311546 -24.78515625 137.0703125 C-25.26224695 132.9617063 -25.26696648 128.86737513 -25.28442383 124.734375 C-25.30092484 123.49467957 -25.31742584 122.25498413 -25.33442688 120.97772217 C-25.37485908 117.5892209 -25.40147417 114.20127262 -25.41865373 110.81261444 C-25.42969687 108.69351388 -25.44398384 106.57445791 -25.4591732 104.4553833 C-25.50550471 97.81857922 -25.53910213 91.18188236 -25.55518895 84.54493523 C-25.57394427 76.89434503 -25.6354528 69.24566325 -25.73369104 61.59568977 C-25.80711489 55.67277567 -25.84206729 49.75040262 -25.8480522 43.82703972 C-25.85249455 40.29269379 -25.87317813 36.76024067 -25.9341526 33.22637939 C-26.00092674 29.28571193 -25.98798018 25.34747895 -25.96801758 21.40625 C-25.9992572 20.24035339 -26.03049683 19.07445679 -26.06268311 17.87322998 C-26.00841657 14.64226295 -25.8667735 12.11743688 -24.78515625 9.0703125 C-21.77804416 6.23520471 -18.58294775 4.63391761 -14.78515625 3.0703125 C-13.5938647 2.55455658 -13.5938647 2.55455658 -12.37850666 2.02838135 C-8.18963908 0.31007897 -4.51454774 -0.06087031 0 0 Z " fill="#2156BE" transform="translate(907.78515625,621.9296875)"/>
<path d="M0 0 C1 2 1 2 0.43067932 4.14633179 C-0.0598568 5.48614609 -0.0598568 5.48614609 -0.56030273 6.85302734 C-0.92979034 7.87375839 -1.29927795 8.89448944 -1.67996216 9.94615173 C-2.09366058 11.06478104 -2.50735901 12.18341034 -2.93359375 13.3359375 C-3.35760468 14.5008522 -3.7816156 15.66576691 -4.21847534 16.86598206 C-5.37644058 20.04306148 -6.54104858 23.21755446 -7.7086525 26.39109421 C-8.92795572 29.71000895 -10.13881634 33.03199975 -11.3503418 36.35375977 C-13.30808447 41.71889136 -15.27028574 47.08237092 -17.23535156 52.44482422 C-19.63729338 59.00104536 -22.0229079 65.56307163 -24.3984375 72.12890625 C-27.27625825 80.08212857 -30.16564479 88.03099254 -33.06967163 95.97468567 C-34.78177876 100.6586433 -36.48854382 105.34445746 -38.1875 110.03320312 C-40.02929575 115.11478778 -41.88280488 120.19196324 -43.74423218 125.26638794 C-44.45125866 127.19970796 -45.15430373 129.13448908 -45.85317993 131.07077026 C-46.81459234 133.73223303 -47.79019259 136.38805992 -48.76953125 139.04296875 C-49.05316528 139.83850159 -49.33679932 140.63403442 -49.62902832 141.45367432 C-50.3324583 143.33722627 -51.15588033 145.17515927 -52 147 C-52.99 147.33 -53.98 147.66 -55 148 C-55.16364381 130.77996737 -55.28702017 113.56017795 -55.3626852 96.33954525 C-55.39875439 88.3433677 -55.44791404 80.34767375 -55.52807617 72.35180664 C-55.59792618 65.38120192 -55.64302615 58.41094748 -55.65861946 51.4400025 C-55.66773252 47.74994986 -55.68909186 44.06089909 -55.7401104 40.37116814 C-55.79665481 36.24821739 -55.79792428 32.12699947 -55.79467773 28.00366211 C-55.81984467 26.78518082 -55.8450116 25.56669952 -55.87094116 24.31129456 C-55.82286832 18.67250811 -55.71359702 14.98819034 -51.65809631 10.83277893 C-49.82794285 9.30144596 -49.82794285 9.30144596 -48 8 C-47.44542335 7.59707198 -46.89084669 7.19414396 -46.31946468 6.779006 C-32.80980213 -2.32065757 -15.51632758 -7.09131953 0 0 Z " fill="#2156BF" transform="translate(1250,627)"/>
<path d="M0 0 C7.47117734 5.73892206 12.58271741 13.61758922 14 23 C14.88198683 34.0320648 13.43220707 42.18642776 6.3125 50.8125 C-1.58919519 59.11001294 -10.63256085 62.02080428 -21.875 62.3125 C-33.41372922 62.11525677 -42.26540768 58.53204646 -50.75 50.75 C-56.8351492 44.38699011 -59.41321634 36.02227824 -59.28125 27.3125 C-58.24084082 18.75802451 -54.48834484 11.63227907 -47.80859375 6.2265625 C-34.75815526 -3.45404445 -14.86936734 -9.45019037 0 0 Z " fill="#2156BF" transform="translate(707,443)"/>
<path d="M0 0 C2 2 2 2 2 6 C1.34 6 0.68 6 0 6 C0 4.02 0 2.04 0 0 Z " fill="#1C54B2" transform="translate(883,545)"/>
</svg>
